<?xml version="1.0" encoding="utf-8"?>
<!-- Generator: Adobe Illustrator 16.0.0, SVG Export Plug-In . SVG Version: 6.00 Build 0)  -->
<!DOCTYPE svg PUBLIC "-//W3C//DTD SVG 1.1//EN" "http://www.w3.org/Graphics/SVG/1.1/DTD/svg11.dtd">
<svg version="1.1" id="Layer_1" xmlns="http://www.w3.org/2000/svg" xmlns:xlink="http://www.w3.org/1999/xlink" x="0px" y="0px"
	 width="902.955px" height="344.983px" viewBox="0 0 902.955 344.983" enable-background="new 0 0 902.955 344.983"
	 xml:space="preserve">
<g>
	<path fill-rule="evenodd" clip-rule="evenodd" fill="#1D9FA2" d="M101.246,336.931c-11.308,0.006-22.528-1.066-33.591-3.374
		c-14.157-2.952-22.453-15.86-21.908-28.265c0.406-9.229,4.39-16.715,11.907-21.924c5.651-3.916,12.174-5.533,19.158-4.549
		c0.807,0.113,1.561,0.361,2.288,0.685c4.214,1.871,8.646,2.89,13.223,3.116c13.892,0.69,27.654,0.006,41.065-4.153
		c15.18-4.708,28.881-12.119,40.813-22.627c19.548-17.213,32.154-38.595,36.574-64.278c5.831-33.883-2.165-64.451-23.965-91.169
		c-10.099-12.377-22.449-22.045-36.833-29.038c-19.247-9.358-39.539-13.016-60.818-10.65c-3.739,0.416-7.506,1.45-11.019,2.818
		c-4.751,1.85-9.303,1.245-13.837-0.197c-19.351-6.155-24.878-30.199-11.91-44.73c4.469-5.008,9.975-7.829,16.451-9.087
		C82.417,6.87,96.1,5.925,109.908,6.624c15.281,0.773,30.135,3.712,44.59,8.692c21.375,7.364,40.453,18.62,57.255,33.757
		c4.402,3.966,8.744,8.02,12.603,12.486c7.905,9.148,14.987,18.915,20.885,29.513c10.835,19.471,17.523,40.269,19.997,62.399
		c2.116,18.933,0.923,37.686-3.438,56.237c-1.044,4.438-2.227,8.838-3.667,13.163c-3.977,11.952-9.026,23.426-15.642,34.163
		c-4.472,7.258-9.433,14.165-14.818,20.796c-6.642,8.18-14.229,15.351-22.375,21.959c-13.466,10.924-28.234,19.657-44.434,25.891
		C141.686,333.06,121.83,336.941,101.246,336.931z"/>
	<path fill-rule="evenodd" clip-rule="evenodd" fill="#5B5B5B" d="M77.973,240.755c-22.317-1.272-40.021-11.164-53.151-29.061
		c-9.923-13.526-14.143-28.91-12.938-45.638c1.02-14.163,6.028-26.881,14.803-38.076c1.639-2.091,3.648-3.873,5.391-5.839
		c3.269-3.688,7.108-6.567,11.125-9.254c26.442-17.688,59.947-14.229,82.486,4.302c4.972,4.088,9.433,8.674,12.96,14.06
		c8.458,12.915,13.021,27.028,12.363,42.579c-0.507,11.965-3.934,23.091-10.042,33.42c-1.776,3.003-3.849,5.77-5.918,8.546
		c-0.797,1.07-1.975,1.848-2.869,2.856c-3.89,4.388-8.271,8.188-13.253,11.286c-9.091,5.654-18.908,9.271-29.565,10.521
		c-0.553,0.064-1.116,0.045-1.675,0.064C84.451,240.63,81.203,240.331,77.973,240.755z"/>
	<path fill-rule="evenodd" clip-rule="evenodd" fill="#5B5B5B" d="M373.944,109.016c31.295-0.634,58.502,26.521,58.481,58.449
		c-0.021,31.717-26.708,58.409-58.213,58.622c-32.079,0.217-59.13-26.676-59.084-58.714
		C315.176,135.126,342.632,108.226,373.944,109.016z M420.414,167.443c0.696-25.228-21.738-46.961-47.157-46.704
		c-24.406,0.247-46.525,21.385-46.268,47.258c0.244,24.482,21.367,46.597,47.544,46.215
		C399.373,213.851,421.086,192.445,420.414,167.443z"/>
	<path fill-rule="evenodd" clip-rule="evenodd" fill="#5B5B5B" d="M675.567,220.025c-0.119-1.393,0.648-2.642,1.289-3.924
		c6.818-13.655,13.641-27.308,20.467-40.959c10.113-20.227,20.228-40.453,30.352-60.673c0.499-0.998,1.015-2.008,1.673-2.902
		c2.577-3.501,6.924-3.463,9.477,0.068c0.512,0.707,0.907,1.505,1.3,2.289c17.165,34.303,34.327,68.608,51.479,102.917
		c2.096,4.193,0.693,7.747-3.453,8.884c-2.658,0.729-4.993-0.132-6.383-2.509c-0.926-1.583-1.684-3.266-2.507-4.909
		c-4.257-8.505-8.526-17.003-12.747-25.524c-0.681-1.374-1.235-2.263-3.16-1.943c-2.258,0.375-4.625,0.089-6.944,0.089
		c-16.795,0-33.592,0.09-50.385-0.093c-2.671-0.029-3.802,0.815-4.894,3.075c-4.485,9.281-9.18,18.462-13.801,27.678
		c-0.322,0.643-0.627,1.301-1.023,1.896c-1.48,2.229-3.843,2.995-6.525,2.159C677.224,224.845,675.557,222.676,675.567,220.025z
		 M708.674,178.955c17.086,0,33.812,0,50.815,0c-8.467-16.973-16.821-33.719-25.377-50.87
		C725.537,145.234,717.17,161.966,708.674,178.955z"/>
	<path fill-rule="evenodd" clip-rule="evenodd" fill="#5B5B5B" d="M517.024,108.989c12.452,0.191,23.934,3.563,34.284,10.579
		c2.859,1.938,5.463,4.196,7.603,6.917c2.665,3.389,1.582,7.703-2.254,9.344c-2.056,0.88-3.933,0.476-5.616-0.861
		c-1.752-1.392-3.422-2.886-5.154-4.304c-7.359-6.024-15.842-9.137-25.295-9.697c-10.622-0.629-20.531,1.573-29.314,7.765
		c-10.636,7.498-17.89,17.405-19.951,30.433c-2.856,18.051,2.759,33.143,16.944,44.803c10.045,8.257,21.702,11.157,34.533,9.835
		c7.64-0.787,14.62-3.318,20.852-7.801c2.006-1.442,3.829-3.142,5.742-4.715c0.617-0.508,1.226-1.035,1.889-1.477
		c2.531-1.688,5.286-1.392,7.391,0.756c2.127,2.172,2.398,4.916,0.572,7.388c-2.403,3.253-5.462,5.838-8.826,8.034
		c-8.735,5.704-18.335,8.9-28.73,9.764c-31.465,2.611-52.32-18.766-59.184-37.32c-7.754-20.961-4.354-46.989,16.356-65.053
		c8.339-7.273,17.864-11.988,28.834-13.663C510.78,109.245,513.883,108.906,517.024,108.989z"/>
	<path fill-rule="evenodd" clip-rule="evenodd" fill="#5B5B5B" d="M606.718,176.511c-0.482,1.215-0.308,2.092-0.309,2.946
		c-0.014,12.871-0.013,25.743-0.008,38.614c0.001,1.362-0.021,2.718-0.323,4.055c-0.429,1.898-1.585,3.081-3.47,3.561
		c-1.258,0.32-2.516,0.38-3.798,0.12c-2.558-0.519-3.919-1.927-4.23-4.505c-0.086-0.711-0.06-1.437-0.06-2.156
		c-0.003-34.377,0.005-68.755-0.021-103.133c-0.001-2.003,0.286-3.808,1.81-5.25c1.147-1.086,2.447-1.753,4.068-1.75
		c10.473,0.016,20.955-0.255,31.417,0.086c17.793,0.58,30.526,15.411,32.585,29.374c2.475,16.772-7.21,33.377-23.262,38.853
		c-3.35,1.144-6.791,1.782-10.341,1.781c-6.156-0.002-12.313-0.038-18.468,0.021C610.102,179.148,608.215,178.638,606.718,176.511z
		 M606.398,170.09c2.57-2.496,3.031-2.685,6.282-2.689c4.958-0.006,9.917,0.042,14.874-0.021c2.153-0.028,4.34-0.077,6.45-0.457
		c11.474-2.062,19.897-12.976,18.957-24.419c-0.983-11.964-10.536-21.278-22.354-21.566c-7.433-0.181-14.873-0.082-22.31-0.083
		c-1.851,0-1.852,0.043-1.898,1.828c-0.008,0.32-0.001,0.64-0.001,0.96c-0.001,14.634-0.001,29.269-0.001,43.904
		C606.398,168.26,606.398,168.974,606.398,170.09z"/>
	<path fill-rule="evenodd" clip-rule="evenodd" fill="#5B5B5B" d="M822.998,167.075c0-16.714,0-33.429,0-50.144
		c0-0.56,0.02-1.12-0.001-1.679c-0.202-5.586,3.579-6.773,7.7-6.084c2.167,0.362,3.531,1.718,3.933,3.971
		c0.228,1.271,0.25,2.542,0.25,3.822c-0.001,31.35-0.001,62.699-0.001,94.05c0,3.127,0,3.127,3.202,3.127
		c15.995,0,31.99,0,47.984,0.001c0.72,0,1.442-0.034,2.159,0.018c2.974,0.212,4.686,1.907,4.889,4.876
		c0.06,0.873,0.06,1.768-0.063,2.631c-0.319,2.249-1.582,3.584-3.802,4.07c-0.695,0.152-1.423,0.224-2.136,0.225
		c-19.194,0.012-38.388-0.003-57.581,0.025c-2.353,0.004-4.179-0.845-5.555-2.731c-0.958-1.313-0.988-2.815-0.986-4.354
		c0.013-16.075,0.008-32.149,0.008-48.225C822.998,169.474,822.998,168.274,822.998,167.075z"/>
	<path fill-rule="evenodd" clip-rule="evenodd" fill="#1D9FA2" d="M77.973,240.755c3.23-0.425,6.478-0.125,9.716-0.232
		C84.463,241.104,81.222,241.117,77.973,240.755z"/>
</g>
</svg>
